<svg width="73" height="88" viewBox="0 0 73 88" fill="none" xmlns="http://www.w3.org/2000/svg">
<path d="M17.3955 42.0409C20.1132 42.0409 22.3164 39.8377 22.3164 37.12C22.3164 34.4023 20.1132 32.1991 17.3955 32.1991C14.6778 32.1991 12.4746 34.4023 12.4746 37.12C12.4746 39.8377 14.6778 42.0409 17.3955 42.0409Z" fill="white"/>
<path d="M37.0315 63.7028C36.9201 63.1452 36.619 62.6435 36.1794 62.2828C35.7398 61.9222 35.1889 61.7249 34.6203 61.7246H24.4513L23.3957 54.3433H34.6203V49.4224H22.6945L22.2935 46.6125C22.2094 46.0265 21.9168 45.4903 21.4694 45.1026C21.0219 44.7148 20.4497 44.5014 19.8576 44.5015H17.3972C17.0449 44.5026 16.6969 44.5792 16.3767 44.726C16.0565 44.8729 15.7714 45.0866 15.5406 45.3528C15.3099 45.619 15.1388 45.9315 15.0389 46.2693C14.9389 46.6071 14.9125 46.9624 14.9613 47.3113L17.1191 62.4234C17.2921 63.5934 17.8787 64.6627 18.7725 65.4373C19.6663 66.2119 20.8081 66.6406 21.9908 66.6455H32.6027L34.667 76.9695C34.8983 78.1186 35.9071 78.9477 37.0807 78.9477H44.4621V74.0268H39.0959L37.0315 63.7028Z" fill="white"/>
<path d="M26.0322 70.3364C24.2139 73.968 20.4962 76.4875 16.1658 76.4875C13.2303 76.4843 10.416 75.3167 8.34027 73.241C6.26456 71.1653 5.09701 68.351 5.09375 65.4155C5.0969 63.2107 5.75826 61.057 6.99309 59.2304C8.22793 57.4038 9.98 55.9874 12.0248 55.1628L11.3138 50.1804C4.86001 52.2398 0.172852 58.2901 0.172852 65.4155C0.172852 74.2338 7.34752 81.4084 16.1658 81.4084C18.9085 81.4039 21.604 80.6941 23.9933 79.3471C26.3826 78.0002 28.3853 76.0614 29.809 73.7171L29.1348 70.3364H26.0322Z" fill="white"/>
</svg>
