<svg width="561" height="183" viewBox="0 0 561 183" fill="none" xmlns="http://www.w3.org/2000/svg">
<path d="M18.1353 7.91943C15.3439 7.91943 13.1826 8.97217 11.6514 11.0776C10.1201 13.1672 9.35449 16.0861 9.35449 19.8345C9.35449 27.6343 12.2814 31.5342 18.1353 31.5342C20.5916 31.5342 23.5664 30.9201 27.0596 29.6919V35.9126C24.1885 37.1089 20.9824 37.707 17.4414 37.707C12.3532 37.707 8.46126 36.1678 5.76562 33.0894C3.06999 29.995 1.72217 25.5607 1.72217 19.7866C1.72217 16.1499 2.38411 12.9678 3.70801 10.2402C5.0319 7.49674 6.93001 5.39925 9.40234 3.94775C11.8906 2.48031 14.8016 1.74658 18.1353 1.74658C21.5327 1.74658 24.9461 2.56803 28.3755 4.21094L25.9829 10.2402C24.675 9.61816 23.359 9.07585 22.0352 8.61328C20.7113 8.15072 19.4113 7.91943 18.1353 7.91943ZM39.7642 23.8062C39.7642 26.4539 40.1948 28.4557 41.0562 29.8115C41.9334 31.1673 43.353 31.8452 45.3149 31.8452C47.2609 31.8452 48.6566 31.1753 49.502 29.8354C50.3633 28.4797 50.7939 26.4699 50.7939 23.8062C50.7939 21.1584 50.3633 19.1725 49.502 17.8486C48.6406 16.5247 47.229 15.8628 45.2671 15.8628C43.3211 15.8628 41.9175 16.5247 41.0562 17.8486C40.1948 19.1566 39.7642 21.1424 39.7642 23.8062ZM58.2588 23.8062C58.2588 28.1606 57.1104 31.5661 54.8135 34.0225C52.5166 36.4788 49.3185 37.707 45.2192 37.707C42.6512 37.707 40.3862 37.1488 38.4243 36.0322C36.4624 34.8997 34.9551 33.2808 33.9023 31.1753C32.8496 29.0698 32.3232 26.6134 32.3232 23.8062C32.3232 19.4357 33.4637 16.0382 35.7446 13.6138C38.0256 11.1893 41.2316 9.97705 45.3628 9.97705C47.9308 9.97705 50.1958 10.5353 52.1577 11.6519C54.1196 12.7684 55.627 14.3714 56.6797 16.4609C57.7324 18.5505 58.2588 20.9989 58.2588 23.8062ZM88.9795 37.2285H81.6821V21.605C81.6821 19.675 81.3392 18.2314 80.6533 17.2744C79.9674 16.3014 78.8748 15.8149 77.3755 15.8149C75.3338 15.8149 73.8584 16.5008 72.9492 17.8726C72.04 19.2284 71.5854 21.4854 71.5854 24.6436V37.2285H64.2881V10.4795H69.8628L70.8438 13.9009H71.2505C72.064 12.6089 73.1805 11.6359 74.6001 10.9819C76.0356 10.312 77.6626 9.97705 79.481 9.97705C82.5913 9.97705 84.952 10.8224 86.563 12.5132C88.174 14.188 88.9795 16.6125 88.9795 19.7866V37.2285ZM115.154 29.2852C115.154 32.0286 114.197 34.1182 112.283 35.5537C110.385 36.9893 107.538 37.707 103.742 37.707C101.796 37.707 100.137 37.5715 98.7651 37.3003C97.3934 37.0451 96.1094 36.6623 94.9131 36.1519V30.1226C96.2689 30.7606 97.7922 31.2949 99.4829 31.7256C101.19 32.1562 102.689 32.3716 103.981 32.3716C106.629 32.3716 107.953 31.606 107.953 30.0747C107.953 29.5005 107.777 29.0379 107.426 28.687C107.075 28.3201 106.469 27.9134 105.608 27.4668C104.747 27.0042 103.598 26.4699 102.163 25.8638C100.105 25.0024 98.5897 24.2049 97.6167 23.4712C96.6597 22.7375 95.9578 21.9001 95.5112 20.959C95.0806 20.002 94.8652 18.8296 94.8652 17.4419C94.8652 15.0653 95.7824 13.231 97.6167 11.939C99.467 10.631 102.083 9.97705 105.464 9.97705C108.686 9.97705 111.821 10.6789 114.867 12.0825L112.666 17.3462C111.326 16.772 110.074 16.3014 108.91 15.9346C107.745 15.5677 106.557 15.3843 105.345 15.3843C103.191 15.3843 102.115 15.9665 102.115 17.1309C102.115 17.7848 102.458 18.3511 103.144 18.8296C103.845 19.3081 105.369 20.0179 107.713 20.959C109.803 21.8044 111.334 22.5939 112.307 23.3276C113.28 24.0614 113.998 24.9067 114.46 25.8638C114.923 26.8208 115.154 27.9613 115.154 29.2852ZM139.798 37.2285L138.817 33.8071H138.434C137.653 35.0513 136.544 36.0163 135.108 36.7021C133.673 37.3721 132.038 37.707 130.204 37.707C127.061 37.707 124.693 36.8696 123.098 35.1948C121.503 33.5041 120.705 31.0796 120.705 27.9214V10.4795H128.002V26.103C128.002 28.033 128.345 29.4845 129.031 30.4575C129.717 31.4146 130.81 31.8931 132.309 31.8931C134.351 31.8931 135.826 31.2152 136.735 29.8594C137.645 28.4876 138.099 26.2227 138.099 23.0645V10.4795H145.396V37.2285H139.798ZM160.35 37.2285H153.053V0H160.35V37.2285ZM179.299 31.8931C180.575 31.8931 182.107 31.6139 183.893 31.0557V36.4868C182.075 37.3003 179.842 37.707 177.194 37.707C174.275 37.707 172.146 36.9733 170.806 35.5059C169.482 34.0225 168.82 31.8053 168.82 28.8545V15.9585H165.327V12.8721L169.346 10.4316L171.452 4.78516H176.117V10.4795H183.606V15.9585H176.117V28.8545C176.117 29.8913 176.404 30.6569 176.979 31.1514C177.569 31.6458 178.342 31.8931 179.299 31.8931ZM219.04 37.2285L217.628 33.5918H217.437C216.209 35.139 214.941 36.2157 213.633 36.8218C212.341 37.4119 210.65 37.707 208.561 37.707C205.993 37.707 203.967 36.9733 202.483 35.5059C201.016 34.0384 200.282 31.9489 200.282 29.2373C200.282 26.3981 201.271 24.3086 203.249 22.9688C205.243 21.613 208.242 20.8633 212.245 20.7197L216.887 20.5762V19.4038C216.887 16.6922 215.499 15.3364 212.724 15.3364C210.586 15.3364 208.074 15.9824 205.187 17.2744L202.771 12.3457C205.849 10.7347 209.262 9.9292 213.011 9.9292C216.6 9.9292 219.351 10.7108 221.265 12.2739C223.179 13.8371 224.136 16.2137 224.136 19.4038V37.2285H219.04ZM216.887 24.835L214.063 24.9307C211.942 24.9945 210.363 25.3773 209.326 26.0791C208.289 26.7809 207.771 27.8496 207.771 29.2852C207.771 31.3428 208.951 32.3716 211.312 32.3716C213.003 32.3716 214.351 31.8851 215.355 30.9121C216.376 29.9391 216.887 28.6471 216.887 27.0361V24.835ZM273.998 19.4038C273.998 25.1619 272.355 29.5723 269.069 32.6348C265.799 35.6973 261.07 37.2285 254.881 37.2285H244.976V2.24902H255.958C261.668 2.24902 266.102 3.75635 269.26 6.771C272.418 9.78564 273.998 13.9966 273.998 19.4038ZM266.293 19.5952C266.293 12.0825 262.976 8.32617 256.34 8.32617H252.393V31.1035H255.575C262.721 31.1035 266.293 27.2674 266.293 19.5952ZM286.487 23.8062C286.487 26.4539 286.917 28.4557 287.779 29.8115C288.656 31.1673 290.076 31.8452 292.038 31.8452C293.984 31.8452 295.379 31.1753 296.225 29.8354C297.086 28.4797 297.517 26.4699 297.517 23.8062C297.517 21.1584 297.086 19.1725 296.225 17.8486C295.363 16.5247 293.952 15.8628 291.99 15.8628C290.044 15.8628 288.64 16.5247 287.779 17.8486C286.917 19.1566 286.487 21.1424 286.487 23.8062ZM304.981 23.8062C304.981 28.1606 303.833 31.5661 301.536 34.0225C299.239 36.4788 296.041 37.707 291.942 37.707C289.374 37.707 287.109 37.1488 285.147 36.0322C283.185 34.8997 281.678 33.2808 280.625 31.1753C279.572 29.0698 279.046 26.6134 279.046 23.8062C279.046 19.4357 280.186 16.0382 282.467 13.6138C284.748 11.1893 287.954 9.97705 292.085 9.97705C294.653 9.97705 296.918 10.5353 298.88 11.6519C300.842 12.7684 302.35 14.3714 303.402 16.4609C304.455 18.5505 304.981 20.9989 304.981 23.8062ZM321.873 37.707C313.547 37.707 309.384 33.1372 309.384 23.9976C309.384 19.4517 310.516 15.9824 312.781 13.5898C315.046 11.1813 318.292 9.97705 322.519 9.97705C325.613 9.97705 328.389 10.5832 330.845 11.7954L328.692 17.4419C327.543 16.9793 326.475 16.6045 325.486 16.3174C324.497 16.0143 323.508 15.8628 322.519 15.8628C318.723 15.8628 316.825 18.5584 316.825 23.9497C316.825 29.1815 318.723 31.7974 322.519 31.7974C323.923 31.7974 325.223 31.6139 326.419 31.2471C327.615 30.8643 328.812 30.2741 330.008 29.4766V35.7212C328.827 36.4709 327.631 36.9893 326.419 37.2764C325.223 37.5635 323.707 37.707 321.873 37.707ZM347.498 31.8931C348.774 31.8931 350.305 31.6139 352.091 31.0557V36.4868C350.273 37.3003 348.04 37.707 345.392 37.707C342.473 37.707 340.344 36.9733 339.004 35.5059C337.68 34.0225 337.018 31.8053 337.018 28.8545V15.9585H333.525V12.8721L337.544 10.4316L339.65 4.78516H344.315V10.4795H351.804V15.9585H344.315V28.8545C344.315 29.8913 344.603 30.6569 345.177 31.1514C345.767 31.6458 346.541 31.8931 347.498 31.8931ZM363.336 23.8062C363.336 26.4539 363.767 28.4557 364.628 29.8115C365.506 31.1673 366.925 31.8452 368.887 31.8452C370.833 31.8452 372.229 31.1753 373.074 29.8354C373.936 28.4797 374.366 26.4699 374.366 23.8062C374.366 21.1584 373.936 19.1725 373.074 17.8486C372.213 16.5247 370.801 15.8628 368.839 15.8628C366.893 15.8628 365.49 16.5247 364.628 17.8486C363.767 19.1566 363.336 21.1424 363.336 23.8062ZM381.831 23.8062C381.831 28.1606 380.683 31.5661 378.386 34.0225C376.089 36.4788 372.891 37.707 368.792 37.707C366.223 37.707 363.958 37.1488 361.997 36.0322C360.035 34.8997 358.527 33.2808 357.475 31.1753C356.422 29.0698 355.896 26.6134 355.896 23.8062C355.896 19.4357 357.036 16.0382 359.317 13.6138C361.598 11.1893 364.804 9.97705 368.935 9.97705C371.503 9.97705 373.768 10.5353 375.73 11.6519C377.692 12.7684 379.199 14.3714 380.252 16.4609C381.305 18.5505 381.831 20.9989 381.831 23.8062ZM402.79 9.97705C403.779 9.97705 404.6 10.0488 405.254 10.1924L404.704 17.0352C404.114 16.8757 403.396 16.7959 402.551 16.7959C400.222 16.7959 398.404 17.394 397.096 18.5903C395.804 19.7866 395.158 21.4614 395.158 23.6147V37.2285H387.86V10.4795H393.387L394.464 14.9775H394.823C395.652 13.4782 396.769 12.2739 398.172 11.3647C399.592 10.4396 401.131 9.97705 402.79 9.97705ZM434.109 31.8931C435.385 31.8931 436.916 31.6139 438.703 31.0557V36.4868C436.884 37.3003 434.651 37.707 432.003 37.707C429.084 37.707 426.955 36.9733 425.615 35.5059C424.291 34.0225 423.629 31.8053 423.629 28.8545V15.9585H420.136V12.8721L424.156 10.4316L426.261 4.78516H430.927V10.4795H438.416V15.9585H430.927V28.8545C430.927 29.8913 431.214 30.6569 431.788 31.1514C432.378 31.6458 433.152 31.8931 434.109 31.8931ZM449.948 23.8062C449.948 26.4539 450.378 28.4557 451.24 29.8115C452.117 31.1673 453.537 31.8452 455.499 31.8452C457.444 31.8452 458.84 31.1753 459.686 29.8354C460.547 28.4797 460.978 26.4699 460.978 23.8062C460.978 21.1584 460.547 19.1725 459.686 17.8486C458.824 16.5247 457.413 15.8628 455.451 15.8628C453.505 15.8628 452.101 16.5247 451.24 17.8486C450.378 19.1566 449.948 21.1424 449.948 23.8062ZM468.442 23.8062C468.442 28.1606 467.294 31.5661 464.997 34.0225C462.7 36.4788 459.502 37.707 455.403 37.707C452.835 37.707 450.57 37.1488 448.608 36.0322C446.646 34.8997 445.139 33.2808 444.086 31.1753C443.033 29.0698 442.507 26.6134 442.507 23.8062C442.507 19.4357 443.647 16.0382 445.928 13.6138C448.209 11.1893 451.415 9.97705 455.546 9.97705C458.114 9.97705 460.379 10.5353 462.341 11.6519C464.303 12.7684 465.811 14.3714 466.863 16.4609C467.916 18.5505 468.442 20.9989 468.442 23.8062ZM482.941 37.707C479.799 37.707 477.327 36.4868 475.524 34.0464C473.738 31.606 472.845 28.2244 472.845 23.9019C472.845 19.5155 473.754 16.1021 475.572 13.6616C477.407 11.2052 479.927 9.97705 483.133 9.97705C486.498 9.97705 489.066 11.285 490.837 13.9009H491.076C490.709 11.9071 490.526 10.1286 490.526 8.56543V0H497.847V37.2285H492.249L490.837 33.7593H490.526C488.867 36.3911 486.339 37.707 482.941 37.707ZM485.501 31.8931C487.368 31.8931 488.731 31.3507 489.593 30.2661C490.47 29.1815 490.949 27.3392 491.028 24.7393V23.9497C491.028 21.0786 490.582 19.021 489.688 17.7769C488.811 16.5327 487.376 15.9106 485.382 15.9106C483.755 15.9106 482.487 16.6045 481.578 17.9922C480.684 19.3639 480.238 21.3657 480.238 23.9976C480.238 26.6294 480.692 28.6073 481.602 29.9312C482.511 31.2391 483.811 31.8931 485.501 31.8931ZM522.467 37.2285L521.055 33.5918H520.864C519.636 35.139 518.368 36.2157 517.06 36.8218C515.768 37.4119 514.077 37.707 511.987 37.707C509.419 37.707 507.394 36.9733 505.91 35.5059C504.443 34.0384 503.709 31.9489 503.709 29.2373C503.709 26.3981 504.698 24.3086 506.676 22.9688C508.67 21.613 511.668 20.8633 515.672 20.7197L520.313 20.5762V19.4038C520.313 16.6922 518.926 15.3364 516.15 15.3364C514.013 15.3364 511.501 15.9824 508.614 17.2744L506.197 12.3457C509.276 10.7347 512.689 9.9292 516.438 9.9292C520.026 9.9292 522.778 10.7108 524.692 12.2739C526.606 13.8371 527.563 16.2137 527.563 19.4038V37.2285H522.467ZM520.313 24.835L517.49 24.9307C515.369 24.9945 513.79 25.3773 512.753 26.0791C511.716 26.7809 511.198 27.8496 511.198 29.2852C511.198 31.3428 512.378 32.3716 514.739 32.3716C516.43 32.3716 517.777 31.8851 518.782 30.9121C519.803 29.9391 520.313 28.6471 520.313 27.0361V24.835ZM531.271 10.4795H539.263L544.311 25.5288C544.742 26.8368 545.037 28.384 545.196 30.1704H545.34C545.515 28.5275 545.858 26.9803 546.369 25.5288L551.321 10.4795H559.145L547.828 40.6499C546.791 43.4412 545.308 45.5308 543.378 46.9185C541.464 48.3062 539.223 49 536.655 49C535.395 49 534.159 48.8644 532.946 48.5933V42.8032C533.824 43.0106 534.781 43.1143 535.817 43.1143C537.109 43.1143 538.234 42.7155 539.191 41.918C540.164 41.1364 540.922 39.9481 541.464 38.353L541.895 37.0371L531.271 10.4795ZM13.9722 98.8931C15.2482 98.8931 16.7795 98.6139 18.5659 98.0557V103.487C16.7476 104.3 14.5145 104.707 11.8667 104.707C8.94775 104.707 6.81836 103.973 5.47852 102.506C4.15462 101.022 3.49268 98.8053 3.49268 95.8545V82.9585H-0.000488281V79.8721L4.01904 77.4316L6.12451 71.7852H10.79V77.4795H18.2788V82.9585H10.79V95.8545C10.79 96.8913 11.0771 97.6569 11.6514 98.1514C12.2415 98.6458 13.0151 98.8931 13.9722 98.8931ZM29.811 90.8062C29.811 93.4539 30.2417 95.4557 31.103 96.8115C31.9803 98.1673 33.3999 98.8452 35.3618 98.8452C37.3078 98.8452 38.7035 98.1753 39.5488 96.8354C40.4102 95.4797 40.8408 93.4699 40.8408 90.8062C40.8408 88.1584 40.4102 86.1725 39.5488 84.8486C38.6875 83.5247 37.2759 82.8628 35.314 82.8628C33.368 82.8628 31.9644 83.5247 31.103 84.8486C30.2417 86.1566 29.811 88.1424 29.811 90.8062ZM48.3057 90.8062C48.3057 95.1606 47.1572 98.5661 44.8604 101.022C42.5635 103.479 39.3654 104.707 35.2661 104.707C32.6981 104.707 30.4331 104.149 28.4712 103.032C26.5093 101.9 25.002 100.281 23.9492 98.1753C22.8965 96.0698 22.3701 93.6134 22.3701 90.8062C22.3701 86.4357 23.5106 83.0382 25.7915 80.6138C28.0724 78.1893 31.2785 76.9771 35.4097 76.9771C37.9777 76.9771 40.2427 77.5353 42.2046 78.6519C44.1665 79.7684 45.6738 81.3714 46.7266 83.4609C47.7793 85.5505 48.3057 87.9989 48.3057 90.8062ZM74.0737 89.6816L77.2559 85.6143L84.7446 77.4795H92.9751L82.3521 89.0835L93.6211 104.229H85.1992L77.4951 93.3901L74.3608 95.9023V104.229H67.0635V67H74.3608V83.6045L73.978 89.6816H74.0737ZM122.141 104.229H114.843V88.605C114.843 86.675 114.5 85.2314 113.814 84.2744C113.129 83.3014 112.036 82.8149 110.537 82.8149C108.495 82.8149 107.02 83.5008 106.11 84.8726C105.201 86.2284 104.747 88.4854 104.747 91.6436V104.229H97.4492V77.4795H103.024L104.005 80.9009H104.412C105.225 79.6089 106.342 78.6359 107.761 77.9819C109.197 77.312 110.824 76.9771 112.642 76.9771C115.752 76.9771 118.113 77.8224 119.724 79.5132C121.335 81.188 122.141 83.6125 122.141 86.7866V104.229ZM135.467 90.8062C135.467 93.4539 135.898 95.4557 136.759 96.8115C137.637 98.1673 139.056 98.8452 141.018 98.8452C142.964 98.8452 144.36 98.1753 145.205 96.8354C146.066 95.4797 146.497 93.4699 146.497 90.8062C146.497 88.1584 146.066 86.1725 145.205 84.8486C144.344 83.5247 142.932 82.8628 140.97 82.8628C139.024 82.8628 137.621 83.5247 136.759 84.8486C135.898 86.1566 135.467 88.1424 135.467 90.8062ZM153.962 90.8062C153.962 95.1606 152.813 98.5661 150.517 101.022C148.22 103.479 145.022 104.707 140.922 104.707C138.354 104.707 136.089 104.149 134.127 103.032C132.166 101.9 130.658 100.281 129.605 98.1753C128.553 96.0698 128.026 93.6134 128.026 90.8062C128.026 86.4357 129.167 83.0382 131.448 80.6138C133.729 78.1893 136.935 76.9771 141.066 76.9771C143.634 76.9771 145.899 77.5353 147.861 78.6519C149.823 79.7684 151.33 81.3714 152.383 83.4609C153.436 85.5505 153.962 87.9989 153.962 90.8062ZM181.979 104.229L179.921 94.8735L177.146 83.0542H176.979L172.098 104.229H164.25L156.642 77.4795H163.915L167.001 89.3228C167.496 91.4442 167.998 94.3711 168.509 98.1035H168.652C168.716 96.8913 168.995 94.9692 169.49 92.3374L169.873 90.3037L173.174 77.4795H181.213L184.348 90.3037C184.411 90.6546 184.507 91.173 184.635 91.8589C184.778 92.5448 184.914 93.2785 185.042 94.0601C185.169 94.8257 185.281 95.5833 185.376 96.333C185.488 97.0667 185.552 97.6569 185.568 98.1035H185.711C185.855 96.9551 186.11 95.384 186.477 93.3901C186.844 91.3804 187.107 90.0246 187.267 89.3228L190.473 77.4795H197.626L189.922 104.229H181.979ZM238.635 104.229H231.338V88.605C231.338 86.675 231.011 85.2314 230.357 84.2744C229.719 83.3014 228.706 82.8149 227.318 82.8149C225.452 82.8149 224.096 83.5008 223.251 84.8726C222.406 86.2443 221.983 88.5013 221.983 91.6436V104.229H214.686V77.4795H220.26L221.241 80.9009H221.648C222.366 79.6727 223.403 78.7157 224.758 78.0298C226.114 77.328 227.669 76.9771 229.424 76.9771C233.427 76.9771 236.139 78.285 237.559 80.9009H238.205C238.922 79.6567 239.975 78.6917 241.363 78.0059C242.766 77.32 244.346 76.9771 246.1 76.9771C249.131 76.9771 251.42 77.7586 252.967 79.3218C254.53 80.869 255.312 83.3573 255.312 86.7866V104.229H247.99V88.605C247.99 86.675 247.663 85.2314 247.009 84.2744C246.371 83.3014 245.358 82.8149 243.971 82.8149C242.184 82.8149 240.844 83.453 239.951 84.729C239.074 86.005 238.635 88.0308 238.635 90.8062V104.229ZM268.638 90.8062C268.638 93.4539 269.069 95.4557 269.93 96.8115C270.807 98.1673 272.227 98.8452 274.189 98.8452C276.135 98.8452 277.531 98.1753 278.376 96.8354C279.237 95.4797 279.668 93.4699 279.668 90.8062C279.668 88.1584 279.237 86.1725 278.376 84.8486C277.515 83.5247 276.103 82.8628 274.141 82.8628C272.195 82.8628 270.792 83.5247 269.93 84.8486C269.069 86.1566 268.638 88.1424 268.638 90.8062ZM287.133 90.8062C287.133 95.1606 285.984 98.5661 283.688 101.022C281.391 103.479 278.193 104.707 274.093 104.707C271.525 104.707 269.26 104.149 267.298 103.032C265.336 101.9 263.829 100.281 262.776 98.1753C261.724 96.0698 261.197 93.6134 261.197 90.8062C261.197 86.4357 262.338 83.0382 264.619 80.6138C266.9 78.1893 270.106 76.9771 274.237 76.9771C276.805 76.9771 279.07 77.5353 281.032 78.6519C282.994 79.7684 284.501 81.3714 285.554 83.4609C286.606 85.5505 287.133 87.9989 287.133 90.8062ZM308.092 76.9771C309.081 76.9771 309.902 77.0488 310.556 77.1924L310.006 84.0352C309.416 83.8757 308.698 83.7959 307.853 83.7959C305.524 83.7959 303.705 84.394 302.397 85.5903C301.105 86.7866 300.459 88.4614 300.459 90.6147V104.229H293.162V77.4795H298.689L299.766 81.9775H300.125C300.954 80.4782 302.07 79.2739 303.474 78.3647C304.894 77.4396 306.433 76.9771 308.092 76.9771ZM326.491 82.1689C324.944 82.1689 323.731 82.6634 322.854 83.6523C321.977 84.6253 321.474 86.013 321.347 87.8154H331.587C331.555 86.013 331.084 84.6253 330.175 83.6523C329.266 82.6634 328.038 82.1689 326.491 82.1689ZM327.52 104.707C323.213 104.707 319.847 103.519 317.423 101.142C314.998 98.7655 313.786 95.3999 313.786 91.0454C313.786 86.5633 314.903 83.1021 317.136 80.6616C319.385 78.2052 322.487 76.9771 326.443 76.9771C330.223 76.9771 333.166 78.0537 335.271 80.207C337.377 82.3604 338.43 85.3351 338.43 89.1313V92.6724H321.179C321.259 94.7459 321.873 96.3649 323.021 97.5293C324.17 98.6937 325.781 99.2759 327.854 99.2759C329.465 99.2759 330.989 99.1084 332.424 98.7734C333.86 98.4385 335.359 97.9041 336.922 97.1704V102.817C335.646 103.455 334.283 103.925 332.831 104.229C331.38 104.548 329.609 104.707 327.52 104.707ZM374.079 104.229L372.667 100.592H372.476C371.248 102.139 369.98 103.216 368.672 103.822C367.38 104.412 365.689 104.707 363.6 104.707C361.032 104.707 359.006 103.973 357.522 102.506C356.055 101.038 355.321 98.9489 355.321 96.2373C355.321 93.3981 356.31 91.3086 358.288 89.9688C360.282 88.613 363.281 87.8633 367.284 87.7197L371.926 87.5762V86.4038C371.926 83.6922 370.538 82.3364 367.763 82.3364C365.625 82.3364 363.113 82.9824 360.226 84.2744L357.81 79.3457C360.888 77.7347 364.301 76.9292 368.05 76.9292C371.639 76.9292 374.39 77.7108 376.304 79.2739C378.218 80.8371 379.175 83.2137 379.175 86.4038V104.229H374.079ZM371.926 91.835L369.103 91.9307C366.981 91.9945 365.402 92.3773 364.365 93.0791C363.328 93.7809 362.81 94.8496 362.81 96.2852C362.81 98.3428 363.99 99.3716 366.351 99.3716C368.042 99.3716 369.39 98.8851 370.395 97.9121C371.415 96.9391 371.926 95.6471 371.926 94.0361V91.835ZM401.594 76.9771C404.752 76.9771 407.224 78.2132 409.011 80.6855C410.797 83.1419 411.69 86.5155 411.69 90.8062C411.69 95.2244 410.765 98.6458 408.915 101.07C407.081 103.495 404.576 104.707 401.402 104.707C398.26 104.707 395.796 103.567 394.009 101.286H393.507L392.287 104.229H386.712V67H394.009V75.6611C394.009 76.7617 393.914 78.5243 393.722 80.9487H394.009C395.716 78.3009 398.244 76.9771 401.594 76.9771ZM399.249 82.8149C397.447 82.8149 396.131 83.3732 395.301 84.4897C394.472 85.5903 394.041 87.4167 394.009 89.9688V90.7583C394.009 93.6294 394.432 95.687 395.277 96.9312C396.139 98.1753 397.494 98.7974 399.345 98.7974C400.844 98.7974 402.032 98.1115 402.91 96.7397C403.803 95.3521 404.25 93.3423 404.25 90.7104C404.25 88.0786 403.803 86.1087 402.91 84.8008C402.016 83.4769 400.796 82.8149 399.249 82.8149ZM423.534 90.8062C423.534 93.4539 423.964 95.4557 424.826 96.8115C425.703 98.1673 427.123 98.8452 429.084 98.8452C431.03 98.8452 432.426 98.1753 433.271 96.8354C434.133 95.4797 434.563 93.4699 434.563 90.8062C434.563 88.1584 434.133 86.1725 433.271 84.8486C432.41 83.5247 430.999 82.8628 429.037 82.8628C427.091 82.8628 425.687 83.5247 424.826 84.8486C423.964 86.1566 423.534 88.1424 423.534 90.8062ZM442.028 90.8062C442.028 95.1606 440.88 98.5661 438.583 101.022C436.286 103.479 433.088 104.707 428.989 104.707C426.421 104.707 424.156 104.149 422.194 103.032C420.232 101.9 418.725 100.281 417.672 98.1753C416.619 96.0698 416.093 93.6134 416.093 90.8062C416.093 86.4357 417.233 83.0382 419.514 80.6138C421.795 78.1893 425.001 76.9771 429.132 76.9771C431.7 76.9771 433.965 77.5353 435.927 78.6519C437.889 79.7684 439.396 81.3714 440.449 83.4609C441.502 85.5505 442.028 87.9989 442.028 90.8062ZM467.007 104.229L466.026 100.807H465.643C464.861 102.051 463.753 103.016 462.317 103.702C460.882 104.372 459.247 104.707 457.413 104.707C454.27 104.707 451.902 103.87 450.307 102.195C448.712 100.504 447.914 98.0796 447.914 94.9214V77.4795H455.211V93.103C455.211 95.033 455.554 96.4845 456.24 97.4575C456.926 98.4146 458.019 98.8931 459.518 98.8931C461.56 98.8931 463.035 98.2152 463.944 96.8594C464.854 95.4876 465.308 93.2227 465.308 90.0645V77.4795H472.605V104.229H467.007ZM491.531 98.8931C492.807 98.8931 494.338 98.6139 496.125 98.0557V103.487C494.306 104.3 492.073 104.707 489.425 104.707C486.506 104.707 484.377 103.973 483.037 102.506C481.713 101.022 481.051 98.8053 481.051 95.8545V82.9585H477.558V79.8721L481.578 77.4316L483.683 71.7852H488.349V77.4795H495.837V82.9585H488.349V95.8545C488.349 96.8913 488.636 97.6569 489.21 98.1514C489.8 98.6458 490.574 98.8931 491.531 98.8931Z" fill="white"/>
<path d="M18.0874 171.229L9.66553 143.786H9.4502C9.75326 149.368 9.90479 153.093 9.90479 154.959V171.229H3.27734V136.249H13.374L21.6523 162.998H21.7959L30.5767 136.249H40.6733V171.229H33.7588V154.672C33.7588 153.89 33.7668 152.989 33.7827 151.968C33.8146 150.947 33.9263 148.236 34.1177 143.833H33.9023L24.8823 171.229H18.0874ZM60.0054 149.169C58.4582 149.169 57.2459 149.663 56.3687 150.652C55.4914 151.625 54.9889 153.013 54.8613 154.815H65.1016C65.0697 153.013 64.5991 151.625 63.6899 150.652C62.7808 149.663 61.5526 149.169 60.0054 149.169ZM61.0342 171.707C56.7275 171.707 53.362 170.519 50.9375 168.142C48.513 165.765 47.3008 162.4 47.3008 158.045C47.3008 153.563 48.4173 150.102 50.6504 147.662C52.8994 145.205 56.0018 143.977 59.9575 143.977C63.7378 143.977 66.6807 145.054 68.7861 147.207C70.8916 149.36 71.9443 152.335 71.9443 156.131V159.672H54.6938C54.7736 161.746 55.3877 163.365 56.5361 164.529C57.6846 165.694 59.2956 166.276 61.3691 166.276C62.9801 166.276 64.5034 166.108 65.939 165.773C67.3745 165.438 68.8739 164.904 70.437 164.17V169.817C69.161 170.455 67.7972 170.925 66.3457 171.229C64.8942 171.548 63.1237 171.707 61.0342 171.707ZM102.569 171.229H95.272V155.605C95.272 153.675 94.929 152.231 94.2432 151.274C93.5573 150.301 92.4647 149.815 90.9653 149.815C88.9237 149.815 87.4482 150.501 86.5391 151.873C85.6299 153.228 85.1753 155.485 85.1753 158.644V171.229H77.8779V144.479H83.4526L84.4336 147.901H84.8403C85.6538 146.609 86.7703 145.636 88.1899 144.982C89.6255 144.312 91.2524 143.977 93.0708 143.977C96.1812 143.977 98.5418 144.822 100.153 146.513C101.764 148.188 102.569 150.612 102.569 153.787V171.229ZM109.771 137.565C109.771 135.188 111.095 134 113.743 134C116.39 134 117.714 135.188 117.714 137.565C117.714 138.697 117.379 139.583 116.709 140.221C116.056 140.843 115.067 141.154 113.743 141.154C111.095 141.154 109.771 139.958 109.771 137.565ZM117.379 171.229H110.082V144.479H117.379V171.229ZM149.751 171.229H142.454V155.605C142.454 153.675 142.111 152.231 141.425 151.274C140.739 150.301 139.646 149.815 138.147 149.815C136.105 149.815 134.63 150.501 133.721 151.873C132.812 153.228 132.357 155.485 132.357 158.644V171.229H125.06V144.479H130.634L131.615 147.901H132.022C132.835 146.609 133.952 145.636 135.372 144.982C136.807 144.312 138.434 143.977 140.252 143.977C143.363 143.977 145.723 144.822 147.334 146.513C148.945 148.188 149.751 150.612 149.751 153.787V171.229ZM180.543 144.479V148.188L176.356 149.265C177.122 150.461 177.505 151.801 177.505 153.284C177.505 156.155 176.5 158.396 174.49 160.007C172.496 161.602 169.721 162.4 166.164 162.4L164.848 162.328L163.771 162.208C163.022 162.783 162.647 163.421 162.647 164.123C162.647 165.175 163.987 165.702 166.667 165.702H171.212C174.147 165.702 176.38 166.332 177.912 167.592C179.459 168.852 180.232 170.702 180.232 173.143C180.232 176.269 178.924 178.693 176.309 180.416C173.709 182.139 169.968 183 165.087 183C161.355 183 158.5 182.346 156.522 181.038C154.56 179.746 153.579 177.928 153.579 175.583C153.579 173.972 154.082 172.624 155.086 171.54C156.091 170.455 157.567 169.681 159.513 169.219C158.763 168.9 158.109 168.381 157.551 167.664C156.993 166.93 156.713 166.156 156.713 165.343C156.713 164.322 157.008 163.477 157.599 162.807C158.189 162.121 159.042 161.451 160.159 160.797C158.755 160.191 157.639 159.218 156.809 157.878C155.996 156.538 155.589 154.959 155.589 153.141C155.589 150.222 156.538 147.965 158.436 146.37C160.334 144.775 163.046 143.977 166.571 143.977C167.32 143.977 168.206 144.049 169.227 144.192C170.263 144.32 170.925 144.416 171.212 144.479H180.543ZM159.896 175.009C159.896 176.014 160.374 176.803 161.331 177.377C162.304 177.952 163.66 178.239 165.398 178.239C168.014 178.239 170.064 177.88 171.547 177.162C173.031 176.444 173.772 175.463 173.772 174.219C173.772 173.214 173.334 172.521 172.457 172.138C171.579 171.755 170.223 171.563 168.389 171.563H164.609C163.269 171.563 162.145 171.875 161.235 172.497C160.342 173.135 159.896 173.972 159.896 175.009ZM162.551 153.236C162.551 154.688 162.878 155.836 163.532 156.682C164.202 157.527 165.215 157.95 166.571 157.95C167.943 157.95 168.947 157.527 169.585 156.682C170.223 155.836 170.542 154.688 170.542 153.236C170.542 150.014 169.219 148.403 166.571 148.403C163.891 148.403 162.551 150.014 162.551 153.236ZM190.784 157.806C190.784 160.454 191.214 162.456 192.076 163.812C192.953 165.167 194.373 165.845 196.334 165.845C198.28 165.845 199.676 165.175 200.521 163.835C201.383 162.48 201.813 160.47 201.813 157.806C201.813 155.158 201.383 153.173 200.521 151.849C199.66 150.525 198.249 149.863 196.287 149.863C194.341 149.863 192.937 150.525 192.076 151.849C191.214 153.157 190.784 155.142 190.784 157.806ZM209.278 157.806C209.278 162.161 208.13 165.566 205.833 168.022C203.536 170.479 200.338 171.707 196.239 171.707C193.671 171.707 191.406 171.149 189.444 170.032C187.482 168.9 185.975 167.281 184.922 165.175C183.869 163.07 183.343 160.613 183.343 157.806C183.343 153.436 184.483 150.038 186.764 147.614C189.045 145.189 192.251 143.977 196.382 143.977C198.95 143.977 201.215 144.535 203.177 145.652C205.139 146.768 206.646 148.371 207.699 150.461C208.752 152.55 209.278 154.999 209.278 157.806ZM226.17 171.707C217.844 171.707 213.681 167.137 213.681 157.998C213.681 153.452 214.813 149.982 217.078 147.59C219.343 145.181 222.589 143.977 226.816 143.977C229.91 143.977 232.686 144.583 235.142 145.795L232.989 151.442C231.84 150.979 230.772 150.604 229.783 150.317C228.794 150.014 227.805 149.863 226.816 149.863C223.02 149.863 221.122 152.558 221.122 157.95C221.122 163.181 223.02 165.797 226.816 165.797C228.22 165.797 229.52 165.614 230.716 165.247C231.912 164.864 233.108 164.274 234.305 163.477V169.721C233.124 170.471 231.928 170.989 230.716 171.276C229.52 171.563 228.004 171.707 226.17 171.707ZM246.339 157.806C246.339 160.454 246.77 162.456 247.631 163.812C248.509 165.167 249.928 165.845 251.89 165.845C253.836 165.845 255.232 165.175 256.077 163.835C256.938 162.48 257.369 160.47 257.369 157.806C257.369 155.158 256.938 153.173 256.077 151.849C255.216 150.525 253.804 149.863 251.842 149.863C249.896 149.863 248.493 150.525 247.631 151.849C246.77 153.157 246.339 155.142 246.339 157.806ZM264.834 157.806C264.834 162.161 263.686 165.566 261.389 168.022C259.092 170.479 255.894 171.707 251.794 171.707C249.226 171.707 246.961 171.149 245 170.032C243.038 168.9 241.53 167.281 240.478 165.175C239.425 163.07 238.898 160.613 238.898 157.806C238.898 153.436 240.039 150.038 242.32 147.614C244.601 145.189 247.807 143.977 251.938 143.977C254.506 143.977 256.771 144.535 258.733 145.652C260.695 146.768 262.202 148.371 263.255 150.461C264.308 152.55 264.834 154.999 264.834 157.806ZM281.726 171.707C273.399 171.707 269.236 167.137 269.236 157.998C269.236 153.452 270.369 149.982 272.634 147.59C274.899 145.181 278.145 143.977 282.372 143.977C285.466 143.977 288.241 144.583 290.698 145.795L288.544 151.442C287.396 150.979 286.327 150.604 285.338 150.317C284.349 150.014 283.361 149.863 282.372 149.863C278.575 149.863 276.677 152.558 276.677 157.95C276.677 163.181 278.575 165.797 282.372 165.797C283.775 165.797 285.075 165.614 286.271 165.247C287.468 164.864 288.664 164.274 289.86 163.477V169.721C288.68 170.471 287.484 170.989 286.271 171.276C285.075 171.563 283.56 171.707 281.726 171.707ZM306.943 171.707C298.617 171.707 294.454 167.137 294.454 157.998C294.454 153.452 295.587 149.982 297.852 147.59C300.117 145.181 303.362 143.977 307.589 143.977C310.684 143.977 313.459 144.583 315.916 145.795L313.762 151.442C312.614 150.979 311.545 150.604 310.556 150.317C309.567 150.014 308.578 149.863 307.589 149.863C303.793 149.863 301.895 152.558 301.895 157.95C301.895 163.181 303.793 165.797 307.589 165.797C308.993 165.797 310.293 165.614 311.489 165.247C312.686 164.864 313.882 164.274 315.078 163.477V169.721C313.898 170.471 312.701 170.989 311.489 171.276C310.293 171.563 308.778 171.707 306.943 171.707ZM338.286 171.229L336.875 167.592H336.683C335.455 169.139 334.187 170.216 332.879 170.822C331.587 171.412 329.896 171.707 327.807 171.707C325.239 171.707 323.213 170.973 321.729 169.506C320.262 168.038 319.528 165.949 319.528 163.237C319.528 160.398 320.517 158.309 322.495 156.969C324.489 155.613 327.488 154.863 331.491 154.72L336.133 154.576V153.404C336.133 150.692 334.745 149.336 331.97 149.336C329.832 149.336 327.32 149.982 324.433 151.274L322.017 146.346C325.095 144.735 328.508 143.929 332.257 143.929C335.846 143.929 338.597 144.711 340.511 146.274C342.425 147.837 343.382 150.214 343.382 153.404V171.229H338.286ZM336.133 158.835L333.31 158.931C331.188 158.994 329.609 159.377 328.572 160.079C327.535 160.781 327.017 161.85 327.017 163.285C327.017 165.343 328.197 166.372 330.558 166.372C332.249 166.372 333.597 165.885 334.602 164.912C335.622 163.939 336.133 162.647 336.133 161.036V158.835ZM358.216 171.229H350.919V134H358.216V171.229ZM399.153 136.249H406.642L394.751 171.229H386.664L374.797 136.249H382.286L388.865 157.064C389.232 158.293 389.607 159.728 389.99 161.371C390.389 162.998 390.636 164.131 390.731 164.769C390.907 163.301 391.505 160.733 392.526 157.064L399.153 136.249ZM427.481 171.229L426.07 167.592H425.878C424.65 169.139 423.382 170.216 422.074 170.822C420.782 171.412 419.091 171.707 417.002 171.707C414.434 171.707 412.408 170.973 410.925 169.506C409.457 168.038 408.724 165.949 408.724 163.237C408.724 160.398 409.713 158.309 411.69 156.969C413.684 155.613 416.683 154.863 420.687 154.72L425.328 154.576V153.404C425.328 150.692 423.94 149.336 421.165 149.336C419.028 149.336 416.515 149.982 413.628 151.274L411.212 146.346C414.29 144.735 417.704 143.929 421.452 143.929C425.041 143.929 427.792 144.711 429.707 146.274C431.621 147.837 432.578 150.214 432.578 153.404V171.229H427.481ZM425.328 158.835L422.505 158.931C420.383 158.994 418.804 159.377 417.768 160.079C416.731 160.781 416.212 161.85 416.212 163.285C416.212 165.343 417.393 166.372 419.753 166.372C421.444 166.372 422.792 165.885 423.797 164.912C424.818 163.939 425.328 162.647 425.328 161.036V158.835ZM450.977 171.707C442.65 171.707 438.487 167.137 438.487 157.998C438.487 153.452 439.62 149.982 441.885 147.59C444.15 145.181 447.396 143.977 451.623 143.977C454.717 143.977 457.492 144.583 459.949 145.795L457.795 151.442C456.647 150.979 455.578 150.604 454.589 150.317C453.6 150.014 452.611 149.863 451.623 149.863C447.826 149.863 445.928 152.558 445.928 157.95C445.928 163.181 447.826 165.797 451.623 165.797C453.026 165.797 454.326 165.614 455.522 165.247C456.719 164.864 457.915 164.274 459.111 163.477V169.721C457.931 170.471 456.735 170.989 455.522 171.276C454.326 171.563 452.811 171.707 450.977 171.707ZM476.194 171.707C467.868 171.707 463.705 167.137 463.705 157.998C463.705 153.452 464.838 149.982 467.103 147.59C469.368 145.181 472.613 143.977 476.84 143.977C479.935 143.977 482.71 144.583 485.167 145.795L483.013 151.442C481.865 150.979 480.796 150.604 479.807 150.317C478.818 150.014 477.829 149.863 476.84 149.863C473.044 149.863 471.146 152.558 471.146 157.95C471.146 163.181 473.044 165.797 476.84 165.797C478.244 165.797 479.544 165.614 480.74 165.247C481.937 164.864 483.133 164.274 484.329 163.477V169.721C483.149 170.471 481.952 170.989 480.74 171.276C479.544 171.563 478.029 171.707 476.194 171.707ZM490.239 137.565C490.239 135.188 491.563 134 494.21 134C496.858 134 498.182 135.188 498.182 137.565C498.182 138.697 497.847 139.583 497.177 140.221C496.523 140.843 495.534 141.154 494.21 141.154C491.563 141.154 490.239 139.958 490.239 137.565ZM497.847 171.229H490.55V144.479H497.847V171.229ZM530.219 171.229H522.921V155.605C522.921 153.675 522.578 152.231 521.893 151.274C521.207 150.301 520.114 149.815 518.615 149.815C516.573 149.815 515.098 150.501 514.188 151.873C513.279 153.228 512.825 155.485 512.825 158.644V171.229H505.527V144.479H511.102L512.083 147.901H512.49C513.303 146.609 514.42 145.636 515.839 144.982C517.275 144.312 518.902 143.977 520.72 143.977C523.831 143.977 526.191 144.822 527.802 146.513C529.413 148.188 530.219 150.612 530.219 153.787V171.229ZM548.809 149.169C547.262 149.169 546.05 149.663 545.172 150.652C544.295 151.625 543.793 153.013 543.665 154.815H553.905C553.873 153.013 553.403 151.625 552.494 150.652C551.584 149.663 550.356 149.169 548.809 149.169ZM549.838 171.707C545.531 171.707 542.166 170.519 539.741 168.142C537.317 165.765 536.104 162.4 536.104 158.045C536.104 153.563 537.221 150.102 539.454 147.662C541.703 145.205 544.806 143.977 548.761 143.977C552.542 143.977 555.484 145.054 557.59 147.207C559.695 149.36 560.748 152.335 560.748 156.131V159.672H543.498C543.577 161.746 544.191 163.365 545.34 164.529C546.488 165.694 548.099 166.276 550.173 166.276C551.784 166.276 553.307 166.108 554.743 165.773C556.178 165.438 557.678 164.904 559.241 164.17V169.817C557.965 170.455 556.601 170.925 555.149 171.229C553.698 171.548 551.927 171.707 549.838 171.707Z" fill="url(#paint0_linear_165_74)"/>
<defs>
<linearGradient id="paint0_linear_165_74" x1="197.839" y1="212.446" x2="117.876" y2="71.2971" gradientUnits="userSpaceOnUse">
<stop stop-color="white"/>
<stop offset="1" stop-color="white"/>
</linearGradient>
</defs>
</svg>
