<svg width="299" height="299" viewBox="0 0 299 299" fill="none" xmlns="http://www.w3.org/2000/svg">
<path opacity="0.1" d="M255.212 255.212C229.362 281.063 194.935 296.545 158.442 298.732C121.949 300.919 85.9202 289.658 57.1676 267.079C28.4151 244.501 8.93225 212.169 2.40338 176.199C-4.1255 140.228 2.75213 103.112 21.7357 71.8691C40.7193 40.6261 70.4929 17.4218 105.426 6.64421C140.36 -4.13339 178.032 -1.7372 211.318 13.3796C244.605 28.4965 271.198 55.2861 286.07 88.6826C300.942 122.079 303.062 159.767 292.028 194.621L247.698 180.587C255.3 156.574 253.84 130.608 243.593 107.598C233.347 84.5892 215.024 66.1318 192.091 55.7167C169.158 45.3017 143.203 43.6507 119.134 51.0762C95.0662 58.5017 74.553 74.4888 61.4739 96.0144C48.3947 117.54 43.6562 143.112 48.1544 167.895C52.6526 192.677 66.0757 214.953 85.8855 230.509C105.695 246.065 130.518 253.823 155.661 252.317C180.803 250.81 204.522 240.143 222.333 222.333L255.212 255.212Z" fill="#D9D9D9"/>
</svg>
