<svg width="61" height="76" viewBox="0 0 61 76" fill="none" xmlns="http://www.w3.org/2000/svg">
<g clip-path="url(#clip0_165_35)">
<path fill-rule="evenodd" clip-rule="evenodd" d="M-4.64948 32.58C-5.0987 32.0979 -5.34326 31.4602 -5.33164 30.8014C-5.32001 30.1425 -5.05311 29.5139 -4.58716 29.048C-4.12121 28.582 -3.49259 28.3151 -2.83374 28.3035C-2.17489 28.2919 -1.53725 28.5364 -1.05515 28.9857L7.5407 37.5815C9.91431 33.4175 14.3055 29.44 21.155 29.44C26.4753 29.44 30.5376 31.3593 33.2367 34.4687C35.8884 37.5205 37.0277 41.4878 37.0277 45.3127C37.0277 48.9002 35.1559 52.3657 33.2299 55.0547C32.0194 56.7365 30.68 58.259 29.4729 59.5103L41.3341 71.3715C41.584 71.6044 41.7844 71.8851 41.9234 72.1971C42.0624 72.509 42.1371 72.8458 42.1431 73.1873C42.1492 73.5287 42.0864 73.8679 41.9585 74.1846C41.8305 74.5013 41.6402 74.7889 41.3987 75.0304C41.1572 75.2719 40.8695 75.4623 40.5528 75.5902C40.2362 75.7181 39.897 75.7809 39.5555 75.7749C39.2141 75.7689 38.8773 75.6941 38.5653 75.5551C38.2534 75.4161 37.9726 75.2157 37.7398 74.9659L-4.64948 32.58ZM25.8751 55.9092C26.9263 54.8139 28.0792 53.5016 29.0931 52.0877C30.8495 49.6462 31.938 47.2658 31.938 45.3127C31.938 42.4406 31.0767 39.7415 29.3949 37.8019C27.7605 35.9234 25.1597 34.5263 21.1517 34.5263C16.0314 34.5263 12.8305 37.8799 11.3181 41.3589L25.8751 55.9126V55.9092ZM19.6461 65.8444C20.0191 65.1866 20.3446 64.4745 20.6159 63.7828L24.4611 67.628C24.335 67.8765 24.2027 68.1219 24.0644 68.3638C23.193 69.8965 21.8739 71.653 19.9479 72.5922C18.3305 73.3823 16.6791 73.9622 14.8514 74.0028C13 74.0435 11.2334 73.5281 9.37177 72.5685C8.77193 72.2596 8.31937 71.725 8.11365 71.0825C7.90794 70.4399 7.96591 69.7419 8.27483 69.142C8.58374 68.5422 9.11829 68.0896 9.76088 67.8839C10.4035 67.6782 11.1015 67.7362 11.7013 68.0451C13.0475 68.7402 13.9732 68.9335 14.7395 68.9165C15.533 68.8996 16.4248 68.6521 17.7167 68.0214C18.2796 67.7501 18.9578 67.0482 19.6461 65.8444ZM20.0869 43.3392C20.4668 43.1465 20.8886 43.051 21.3144 43.0612C21.7213 43.0781 22.2808 43.207 23.0166 43.6647C23.437 43.9041 23.7741 44.2661 23.983 44.7023C24.1594 45.0753 24.2407 45.5161 24.2373 45.9909C24.2297 46.6654 24.4903 47.3153 24.9618 47.7976C25.4334 48.2799 26.0772 48.5552 26.7517 48.5628C27.4262 48.5705 28.0761 48.3099 28.5584 47.8384C29.0407 47.3668 29.316 46.723 29.3237 46.0485C29.3474 43.8377 28.5234 41.1046 25.7022 39.3482C22.803 37.5408 20.0801 37.7036 17.893 38.748C17.2842 39.0384 16.8157 39.5589 16.5906 40.1948C16.4791 40.5097 16.4308 40.8434 16.4483 41.177C16.4658 41.5105 16.5488 41.8374 16.6927 42.1388C16.8365 42.4403 17.0383 42.7105 17.2865 42.934C17.5348 43.1574 17.8246 43.3298 18.1395 43.4413C18.7754 43.6664 19.4781 43.6297 20.0869 43.3392Z" fill="white"/>
</g>
<defs>
<clipPath id="clip0_165_35">
<rect width="61" height="76" fill="white"/>
</clipPath>
</defs>
</svg>
