<svg width="23" height="23" viewBox="0 0 23 23" fill="none" xmlns="http://www.w3.org/2000/svg">
<path d="M11.4998 9.17668C12.0337 9.17668 12.5624 9.07152 13.0556 8.8672C13.5489 8.66288 13.9971 8.36341 14.3746 7.98588C14.7521 7.60835 15.0516 7.16016 15.2559 6.66689C15.4603 6.17363 15.5654 5.64495 15.5654 5.11104C15.5654 4.57713 15.4603 4.04845 15.2559 3.55518C15.0516 3.06192 14.7521 2.61373 14.3746 2.2362C13.9971 1.85867 13.5489 1.55919 13.0556 1.35488C12.5624 1.15056 12.0337 1.0454 11.4998 1.0454C10.4215 1.0454 9.38739 1.47374 8.62493 2.2362C7.86248 2.99865 7.43413 4.03276 7.43413 5.11104C7.43413 6.18931 7.86248 7.22343 8.62493 7.98588C9.38739 8.74834 10.4215 9.17668 11.4998 9.17668ZM1.04527 21.2574V21.9544H21.9543V21.2574C21.9543 18.6554 21.9543 17.3544 21.4478 16.3601C21.0024 15.4858 20.2916 14.7751 19.4173 14.3296C18.423 13.8231 17.122 13.8231 14.52 13.8231H8.47959C5.87757 13.8231 4.57657 13.8231 3.58223 14.3296C2.70798 14.7751 1.9972 15.4858 1.55173 16.3601C1.04527 17.3544 1.04527 18.6554 1.04527 21.2574Z" fill="white" fill-opacity="0.27"/>
<path d="M14.5199 13.3009C15.8123 13.3009 16.813 13.3005 17.614 13.366C18.4212 13.4319 19.0716 13.5672 19.6547 13.8642L19.8347 13.9598C20.7249 14.4585 21.4494 15.2106 21.9141 16.1225L22.0178 16.3452C22.2434 16.8712 22.3546 17.4572 22.4123 18.1632C22.4777 18.9642 22.4774 19.965 22.4774 21.2573V21.9549C22.4771 22.2432 22.2431 22.4773 21.9547 22.4775H1.04527C0.756725 22.4775 0.522876 22.2433 0.522635 21.9549V21.2573C0.522635 19.965 0.522261 18.9642 0.58771 18.1632C0.653664 17.3561 0.788957 16.7056 1.08594 16.1225L1.18254 15.9425C1.68132 15.0525 2.4335 14.3288 3.34527 13.8642L3.56693 13.7595C4.0929 13.5338 4.67901 13.4237 5.38497 13.366C6.18589 13.3005 7.18695 13.3009 8.47909 13.3009H14.5199ZM11.7257 0.527846C12.2511 0.553746 12.769 0.669801 13.256 0.871524L13.4624 0.963036C13.9379 1.18802 14.3719 1.49422 14.7446 1.86697L14.9002 2.02966C15.2535 2.41953 15.5373 2.86845 15.739 3.35556L15.8204 3.56604C15.9974 4.06115 16.0877 4.58363 16.0878 5.11056C16.0878 5.63768 15.9975 6.16082 15.8204 6.6561L15.739 6.86657C15.5373 7.3537 15.2535 7.8026 14.9002 8.19248L14.7446 8.35517C14.3718 8.72793 13.9379 9.03412 13.4624 9.2591L13.256 9.35061C12.6994 9.58117 12.1025 9.69935 11.5 9.69938C10.3592 9.69938 9.26179 9.27481 8.42011 8.51277L8.25539 8.35517C7.39499 7.49469 6.91118 6.32741 6.91118 5.11056C6.91131 3.8939 7.39512 2.72733 8.25539 1.86697L8.42011 1.70937C9.26179 0.947305 10.3592 0.522762 11.5 0.522762L11.7257 0.527846Z" stroke="white" stroke-opacity="0.27" stroke-width="1.00408" stroke-linecap="round" stroke-linejoin="round"/>
</svg>
