<svg width="51" height="51" viewBox="0 0 51 51" fill="none" xmlns="http://www.w3.org/2000/svg">
<path fill-rule="evenodd" clip-rule="evenodd" d="M25.5 0C11.4163 0 0 11.4163 0 25.5C0 39.5836 11.4163 51 25.5 51C39.5836 51 51 39.5836 51 25.5C51 11.4163 39.5836 0 25.5 0ZM17.85 25.5C15.8211 25.5 13.8753 26.306 12.4406 27.7406C11.006 29.1753 10.2 31.1211 10.2 33.15C10.2 35.1789 11.006 37.1247 12.4406 38.5593C13.8753 39.994 15.8211 40.8 17.85 40.8C19.8789 40.8 21.8247 39.994 23.2594 38.5593C24.694 37.1247 25.5 35.1789 25.5 33.15C25.5 31.1211 24.694 29.1753 23.2594 27.7406C21.8247 26.306 19.8789 25.5 17.85 25.5ZM8.16254 19.9078C8.39463 20.0039 8.60551 20.1448 8.78314 20.3224C8.96078 20.5 9.10169 20.7108 9.19783 20.9429C9.29397 21.1749 9.34345 21.4237 9.34345 21.6749C9.34346 21.926 9.29398 22.1748 9.19784 22.4068L8.14214 24.9568C8.04604 25.1889 7.90516 25.3998 7.72756 25.5774C7.54996 25.755 7.33912 25.8959 7.10706 25.992C6.87501 26.0882 6.62629 26.1377 6.37511 26.1377C6.12393 26.1377 5.87521 26.0882 5.64315 25.9921C5.41108 25.896 5.20022 25.7551 5.0226 25.5775C4.84497 25.3999 4.70407 25.1891 4.60794 24.957C4.5118 24.725 4.46231 24.4763 4.4623 24.2251C4.46228 23.9739 4.51174 23.7252 4.60785 23.4931L5.66355 20.9431C5.75963 20.7111 5.9005 20.5002 6.07809 20.3225C6.25569 20.1449 6.46654 20.004 6.6986 19.9078C6.93066 19.8117 7.17938 19.7622 7.43057 19.7622C7.68175 19.7622 7.93048 19.8117 8.16254 19.9078ZM29.8885 13.4487C29.9576 13.9487 30.2216 14.401 30.6228 14.7072C31.0241 15.0134 31.5301 15.1486 32.0305 15.0832C33.7212 14.9914 37.0999 15.8737 37.0999 20.1526C37.0346 20.6535 37.1702 21.1598 37.4769 21.5611C37.7836 21.9625 38.2366 22.2261 38.737 22.2946C39.7825 22.4374 40.7592 21.6214 40.9045 20.5759L40.9173 20.4178C40.9309 20.2886 40.9394 20.1169 40.9428 19.9027C40.9494 19.3446 40.9101 18.7868 40.8255 18.235C40.6138 16.909 40.0401 15.1317 38.5458 13.6374C37.054 12.1431 35.2767 11.5719 33.9507 11.3602C33.229 11.2466 32.4967 11.215 31.7679 11.2659L31.5384 11.2914C31.0345 11.3605 30.5785 11.6262 30.2699 12.0304C29.9612 12.4345 29.8251 12.9444 29.8911 13.4487M19.7472 18.3345C19.7817 18.5833 19.7669 18.8365 19.7036 19.0796C19.6402 19.3226 19.5296 19.5509 19.3781 19.7512C19.2265 19.9515 19.037 20.12 18.8203 20.2471C18.6036 20.3742 18.364 20.4573 18.1152 20.4918H18.0999L18.082 20.4969L18.031 20.502L17.8704 20.5173C17.7412 20.5275 17.5703 20.536 17.3578 20.5428C16.7987 20.5487 16.2401 20.5086 15.6876 20.4229C14.3616 20.2138 12.5842 19.6401 11.0899 18.1458C9.59564 16.6515 9.02444 14.8767 8.81279 13.5507C8.69253 12.7755 8.66684 11.9886 8.73629 11.2072L8.74139 11.1562L8.74394 11.1384C8.81997 10.6446 9.0862 10.2002 9.48568 9.90018C9.88517 9.60017 10.3862 9.46839 10.8816 9.53302C11.377 9.59765 11.8274 9.85357 12.1366 10.246C12.4457 10.6385 12.589 11.1363 12.5358 11.6331C12.444 13.3212 13.3263 16.6999 17.6052 16.6999C18.1057 16.6346 18.6117 16.7698 19.0129 17.076C19.4141 17.3821 19.6781 17.8345 19.7472 18.3345ZM45.2293 28.0321C45.3247 28.5229 45.2241 29.0315 44.9491 29.449C44.6741 29.8666 44.2465 30.1598 43.758 30.2659H43.7529L43.6024 30.3195C43.3739 30.4073 43.1592 30.5275 42.9649 30.6765C42.4753 31.036 41.797 31.7424 41.4171 33.1576C41.0371 34.5754 41.2717 35.524 41.5191 36.0799C41.6364 36.3534 41.7965 36.6065 41.9934 36.8296L41.9985 36.8347C42.3618 37.1759 42.5776 37.6455 42.5999 38.1434C42.6222 38.6413 42.4492 39.1282 42.1178 39.5005C41.7864 39.8728 41.3228 40.101 40.8256 40.1365C40.3285 40.1721 39.8371 40.0121 39.4561 39.6907L40.7133 38.25L39.4587 39.6933L39.4536 39.6882L39.4434 39.678L39.423 39.6627L39.3771 39.6193L39.2496 39.4944C38.7349 38.9451 38.3175 38.3121 38.0154 37.6227C37.4416 36.3196 37.105 34.476 37.7221 32.1682C38.3392 29.8605 39.553 28.4325 40.7056 27.591C41.312 27.1456 41.9898 26.8067 42.7099 26.5888L42.8808 26.5429L42.942 26.5302L42.9675 26.5251L42.9777 26.5225H42.9828C42.9828 26.5225 42.9879 26.52 43.3525 28.3968L42.9879 26.52C43.2345 26.4718 43.4882 26.4727 43.7345 26.5226C43.9808 26.5726 44.2148 26.6706 44.4232 26.811C44.6317 26.9514 44.8103 27.1316 44.9491 27.3411C45.0878 27.5506 45.1839 27.7854 45.2319 28.0321M27.6165 39.0405C27.9281 38.6407 28.3856 38.3809 28.8886 38.3183C29.3916 38.2556 29.899 38.3952 30.2991 38.7064L34.3255 41.8378C34.5238 41.992 34.6897 42.1838 34.8138 42.4021C34.938 42.6204 35.0179 42.8611 35.049 43.1103C35.0802 43.3595 35.0619 43.6124 34.9953 43.8546C34.9287 44.0968 34.8151 44.3234 34.6608 44.5217C34.5066 44.7199 34.3149 44.8859 34.0966 45.01C33.8782 45.1341 33.6376 45.2141 33.3884 45.2452C33.1391 45.2763 32.8862 45.2581 32.6441 45.1915C32.4019 45.1249 32.1752 45.0112 31.977 44.857L27.9505 41.7256C27.7522 41.5713 27.5862 41.3794 27.4621 41.1609C27.3379 40.9425 27.2581 40.7016 27.2271 40.4523C27.196 40.2029 27.2145 39.9499 27.2813 39.7076C27.3481 39.4654 27.462 39.2387 27.6165 39.0405ZM33.7875 25.5C33.7875 24.9928 33.586 24.5063 33.2273 24.1476C32.8687 23.789 32.3822 23.5875 31.875 23.5875C31.3678 23.5875 30.8813 23.789 30.5226 24.1476C30.164 24.5063 29.9625 24.9928 29.9625 25.5V30.6C29.9625 31.1072 30.164 31.5937 30.5226 31.9523C30.8813 32.311 31.3678 32.5125 31.875 32.5125C32.3822 32.5125 32.8687 32.311 33.2273 31.9523C33.586 31.5937 33.7875 31.1072 33.7875 30.6V25.5ZM20.4 5.7375H25.5C26.0072 5.7375 26.4937 5.93899 26.8523 6.29765C27.211 6.65632 27.4125 7.14277 27.4125 7.64999C27.4125 8.15722 27.211 8.64367 26.8523 9.00234C26.4937 9.361 26.0072 9.56249 25.5 9.56249H20.4C19.8928 9.56249 19.4063 9.361 19.0476 9.00234C18.689 8.64367 18.4875 8.15722 18.4875 7.64999C18.4875 7.14277 18.689 6.65632 19.0476 6.29765C19.4063 5.93899 19.8928 5.7375 20.4 5.7375ZM25.5765 15.2235C25.4014 15.0356 25.1903 14.8849 24.9557 14.7803C24.7211 14.6758 24.4678 14.6196 24.211 14.6151C23.9542 14.6106 23.6991 14.6578 23.461 14.754C23.2229 14.8502 23.0065 14.9933 22.8249 15.1749C22.6433 15.3565 22.5002 15.5729 22.404 15.811C22.3078 16.0492 22.2605 16.3042 22.2651 16.561C22.2696 16.8178 22.3258 17.0711 22.4303 17.3057C22.5349 17.5403 22.6856 17.7514 22.8735 17.9265L25.4235 20.4765C25.5986 20.6644 25.8097 20.8151 26.0443 20.9196C26.2789 21.0242 26.5322 21.0804 26.7889 21.0849C27.0457 21.0894 27.3008 21.0422 27.539 20.946C27.7771 20.8498 27.9934 20.7066 28.175 20.525C28.3566 20.3434 28.4998 20.1271 28.596 19.889C28.6922 19.6508 28.7394 19.3957 28.7349 19.139C28.7304 18.8822 28.6741 18.6289 28.5696 18.3943C28.4651 18.1597 28.3144 17.9486 28.1265 17.7735L25.5765 15.2235Z" fill="white"/>
</svg>
