<svg width="22" height="22" viewBox="0 0 22 22" fill="none" xmlns="http://www.w3.org/2000/svg">
<path fill-rule="evenodd" clip-rule="evenodd" d="M11 0C4.92471 0 0 4.92471 0 11C0 17.0753 4.92471 22 11 22C17.0753 22 22 17.0753 22 11C22 4.92471 17.0753 0 11 0ZM7.70001 11C6.8248 11 5.98543 11.3477 5.36656 11.9666C4.74769 12.5854 4.40001 13.4248 4.40001 14.3C4.40001 15.1752 4.74769 16.0146 5.36656 16.6335C5.98543 17.2524 6.8248 17.6 7.70001 17.6C8.57523 17.6 9.4146 17.2524 10.0335 16.6335C10.6523 16.0146 11 15.1752 11 14.3C11 13.4248 10.6523 12.5854 10.0335 11.9666C9.4146 11.3477 8.57523 11 7.70001 11ZM3.52111 8.58772C3.62122 8.62916 3.71219 8.68993 3.78882 8.76654C3.86544 8.84315 3.92623 8.9341 3.9677 9.03421C4.00917 9.13431 4.03052 9.24161 4.03052 9.34996C4.03052 9.45832 4.00918 9.56561 3.96771 9.66572L3.51231 10.7657C3.47085 10.8658 3.41008 10.9568 3.33347 11.0334C3.25685 11.11 3.1659 11.1708 3.0658 11.2123C2.9657 11.2538 2.85841 11.2751 2.75006 11.2751C2.6417 11.2751 2.53441 11.2538 2.4343 11.2123C2.3342 11.1709 2.24324 11.1101 2.16662 11.0335C2.08999 10.9569 2.02921 10.8659 1.98774 10.7658C1.94627 10.6657 1.92492 10.5584 1.92492 10.4501C1.92491 10.3417 1.94625 10.2344 1.9877 10.1343L2.4431 9.03432C2.48455 8.9342 2.54532 8.84323 2.62193 8.76661C2.69854 8.68998 2.78949 8.62919 2.8896 8.58772C2.9897 8.54625 3.097 8.5249 3.20535 8.5249C3.31371 8.5249 3.421 8.54624 3.52111 8.58772ZM12.8931 5.80141C12.9229 6.01708 13.0368 6.21222 13.2099 6.3443C13.383 6.47638 13.6012 6.53469 13.8171 6.50651C14.5464 6.46691 16.0039 6.84751 16.0039 8.69332C15.9758 8.90937 16.0342 9.1278 16.1665 9.30091C16.2988 9.47402 16.4943 9.58777 16.7101 9.61732C17.1611 9.67892 17.5824 9.32692 17.6451 8.87592L17.6506 8.80772C17.6565 8.75198 17.6602 8.67792 17.6616 8.58552C17.6645 8.34473 17.6476 8.10413 17.611 7.86611C17.5197 7.29411 17.2722 6.52741 16.6276 5.88281C15.9841 5.23821 15.2174 4.99181 14.6454 4.90051C14.3341 4.85149 14.0182 4.83783 13.7038 4.85981L13.6048 4.87081C13.3875 4.90062 13.1908 5.01522 13.0576 5.18958C12.9245 5.36394 12.8657 5.58389 12.8942 5.80141M8.51842 7.90901C8.53331 8.01634 8.52691 8.12556 8.49959 8.23042C8.47227 8.33528 8.42456 8.43373 8.35919 8.52015C8.29381 8.60656 8.21205 8.67926 8.11858 8.73407C8.02511 8.78889 7.92175 8.82475 7.81441 8.83962H7.80781L7.80011 8.84182L7.77811 8.84402L7.70881 8.85062C7.65308 8.85501 7.57938 8.85868 7.48771 8.86162C7.24654 8.86416 7.00556 8.84687 6.76721 8.80992C6.19521 8.71972 5.42851 8.47222 4.78391 7.82761C4.13931 7.18301 3.89291 6.41741 3.80161 5.84541C3.74973 5.51102 3.73865 5.17157 3.76861 4.83451L3.77081 4.81251L3.77191 4.80481C3.8047 4.59181 3.91955 4.4001 4.09187 4.27068C4.2642 4.14126 4.48033 4.08441 4.69403 4.11229C4.90773 4.14017 5.10203 4.25057 5.23539 4.41987C5.36874 4.58916 5.43056 4.80392 5.40761 5.01821C5.36801 5.74641 5.74861 7.20391 7.59441 7.20391C7.8103 7.17574 8.02858 7.23404 8.20166 7.36612C8.37475 7.4982 8.4886 7.69334 8.51842 7.90901ZM19.5107 12.0923C19.5519 12.304 19.5085 12.5234 19.3899 12.7035C19.2712 12.8836 19.0868 13.0101 18.876 13.0559H18.8738L18.8089 13.079C18.7104 13.1169 18.6177 13.1688 18.5339 13.233C18.3227 13.3881 18.0301 13.6928 17.8662 14.3033C17.7023 14.9149 17.8035 15.3241 17.9102 15.5639C17.9608 15.6819 18.0299 15.7911 18.1148 15.8873L18.117 15.8895C18.2738 16.0367 18.3669 16.2393 18.3765 16.454C18.3861 16.6688 18.3115 16.8789 18.1685 17.0395C18.0256 17.2001 17.8256 17.2985 17.6111 17.3138C17.3966 17.3292 17.1847 17.2602 17.0203 17.1215L17.5626 16.5L17.0214 17.1226L17.0192 17.1204L17.0148 17.116L17.006 17.1094L16.9862 17.0907L16.9312 17.0368C16.7092 16.7999 16.5292 16.5268 16.3988 16.2294C16.1513 15.6673 16.0061 14.872 16.2723 13.8765C16.5385 12.881 17.0621 12.265 17.5593 11.902C17.8209 11.7099 18.1133 11.5637 18.4239 11.4697L18.4976 11.4499L18.524 11.4444L18.535 11.4422L18.5394 11.4411H18.5416C18.5416 11.4411 18.5438 11.44 18.7011 12.2496L18.5438 11.44C18.6502 11.4192 18.7597 11.4196 18.8659 11.4412C18.9722 11.4627 19.0731 11.505 19.163 11.5656C19.2529 11.6261 19.33 11.7038 19.3898 11.7942C19.4497 11.8846 19.4912 11.9859 19.5118 12.0923M11.913 16.841C12.0474 16.6686 12.2448 16.5565 12.4618 16.5295C12.6788 16.5025 12.8976 16.5627 13.0702 16.6969L14.8071 18.0477C14.8926 18.1143 14.9642 18.197 15.0178 18.2911C15.0713 18.3853 15.1058 18.4891 15.1192 18.5967C15.1327 18.7042 15.1248 18.8133 15.0961 18.9177C15.0673 19.0222 15.0183 19.12 14.9518 19.2055C14.8853 19.291 14.8025 19.3626 14.7084 19.4161C14.6142 19.4697 14.5104 19.5042 14.4029 19.5176C14.2954 19.531 14.1863 19.5231 14.0818 19.4944C13.9773 19.4657 13.8795 19.4167 13.794 19.3501L12.0571 17.9993C11.9716 17.9328 11.9 17.85 11.8464 17.7557C11.7929 17.6615 11.7584 17.5576 11.745 17.45C11.7316 17.3425 11.7396 17.2333 11.7684 17.1288C11.7972 17.0243 11.8464 16.9265 11.913 16.841ZM14.575 11C14.575 10.7812 14.4881 10.5714 14.3334 10.4167C14.1787 10.2619 13.9688 10.175 13.75 10.175C13.5312 10.175 13.3214 10.2619 13.1667 10.4167C13.0119 10.5714 12.925 10.7812 12.925 11V13.2C12.925 13.4188 13.0119 13.6287 13.1667 13.7834C13.3214 13.9381 13.5312 14.025 13.75 14.025C13.9688 14.025 14.1787 13.9381 14.3334 13.7834C14.4881 13.6287 14.575 13.4188 14.575 13.2V11ZM8.80002 2.475H11C11.2188 2.475 11.4287 2.56192 11.5834 2.71664C11.7381 2.87136 11.825 3.0812 11.825 3.30001C11.825 3.51881 11.7381 3.72865 11.5834 3.88337C11.4287 4.03809 11.2188 4.12501 11 4.12501H8.80002C8.58121 4.12501 8.37137 4.03809 8.21665 3.88337C8.06193 3.72865 7.97501 3.51881 7.97501 3.30001C7.97501 3.0812 8.06193 2.87136 8.21665 2.71664C8.37137 2.56192 8.58121 2.475 8.80002 2.475ZM11.033 6.56701C10.9575 6.48596 10.8664 6.42094 10.7652 6.37585C10.664 6.33076 10.5548 6.30652 10.444 6.30456C10.3332 6.30261 10.2232 6.32298 10.1205 6.36448C10.0177 6.40597 9.92442 6.46773 9.84608 6.54607C9.76774 6.62441 9.70598 6.71773 9.66448 6.82045C9.62299 6.92318 9.60261 7.03321 9.60457 7.14399C9.60652 7.25476 9.63077 7.36401 9.67586 7.46521C9.72095 7.5664 9.78596 7.65748 9.86702 7.73301L10.967 8.83302C11.0425 8.91407 11.1336 8.97908 11.2348 9.02418C11.336 9.06927 11.4453 9.09351 11.556 9.09547C11.6668 9.09742 11.7769 9.07704 11.8796 9.03555C11.9823 8.99406 12.0756 8.9323 12.154 8.85396C12.2323 8.77562 12.2941 8.6823 12.3356 8.57957C12.3771 8.47685 12.3974 8.36681 12.3955 8.25604C12.3935 8.14527 12.3693 8.03602 12.3242 7.93482C12.2791 7.83362 12.2141 7.74254 12.133 7.66701L11.033 6.56701Z" fill="white"/>
</svg>
