<svg width="30" height="30" viewBox="0 0 30 30" fill="none" xmlns="http://www.w3.org/2000/svg">
<path d="M14.9999 12C15.6894 12 16.3721 11.8642 17.009 11.6003C17.646 11.3365 18.2247 10.9498 18.7122 10.4623C19.1997 9.97476 19.5864 9.39601 19.8503 8.75906C20.1141 8.1221 20.2499 7.43941 20.2499 6.74998C20.2499 6.06054 20.1141 5.37785 19.8503 4.7409C19.5864 4.10394 19.1997 3.52519 18.7122 3.03768C18.2247 2.55018 17.646 2.16347 17.009 1.89963C16.3721 1.63579 15.6894 1.5 14.9999 1.5C13.6076 1.5 12.2722 2.05312 11.2876 3.03768C10.3031 4.02224 9.74996 5.3576 9.74996 6.74998C9.74996 8.14236 10.3031 9.47771 11.2876 10.4623C12.2722 11.4468 13.6076 12 14.9999 12ZM1.5 27.5999V28.4999H28.4999V27.5999C28.4999 24.2399 28.4999 22.5599 27.8459 21.2759C27.2707 20.147 26.3528 19.2292 25.2239 18.6539C23.9399 17.9999 22.2599 17.9999 18.8999 17.9999H11.1C7.73997 17.9999 6.05998 17.9999 4.77599 18.6539C3.64707 19.2292 2.72923 20.147 2.154 21.2759C1.5 22.5599 1.5 24.2399 1.5 27.5999Z" fill="white" stroke="white" stroke-width="2.95897" stroke-linecap="round" stroke-linejoin="round"/>
</svg>
