<svg width="55" height="55" viewBox="0 0 55 55" fill="none" xmlns="http://www.w3.org/2000/svg">
<path d="M43.725 42.3225C43.01 40.1225 40.9475 38.5 38.5 38.5H35.75V30.25C35.75 29.5207 35.4603 28.8212 34.9446 28.3055C34.4288 27.7897 33.7294 27.5 33 27.5H16.5V22H22C22.7294 22 23.4288 21.7103 23.9446 21.1946C24.4603 20.6788 24.75 19.9794 24.75 19.25V13.75H30.25C31.7087 13.75 33.1077 13.1705 34.1391 12.1391C35.1706 11.1076 35.75 9.70869 35.75 8.25V7.1225C39.0403 8.44901 41.9602 10.5531 44.2597 13.2546C46.5592 15.956 48.1698 19.1745 48.9537 22.6345C49.7376 26.0944 49.6714 29.6928 48.7608 33.1216C47.8502 36.5504 46.1223 39.7074 43.725 42.3225ZM24.75 49.3075C13.8875 47.96 5.5 38.72 5.5 27.5C5.5 25.795 5.72 24.145 6.0775 22.5775L19.25 35.75V38.5C19.25 39.9587 19.8295 41.3577 20.8609 42.3891C21.8924 43.4206 23.2913 44 24.75 44M27.5 0C23.8887 0 20.3127 0.711309 16.9762 2.09331C13.6398 3.47532 10.6082 5.50095 8.05457 8.05457C2.89731 13.2118 0 20.2066 0 27.5C0 34.7935 2.89731 41.7882 8.05457 46.9455C10.6082 49.4991 13.6398 51.5247 16.9762 52.9067C20.3127 54.2887 23.8887 55 27.5 55C34.7935 55 41.7882 52.1027 46.9455 46.9455C52.1027 41.7882 55 34.7935 55 27.5C55 23.8887 54.2887 20.3127 52.9067 16.9762C51.5247 13.6398 49.4991 10.6082 46.9455 8.05457C44.3918 5.50095 41.3603 3.47532 38.0238 2.09331C34.6874 0.711309 31.1114 0 27.5 0Z" fill="white"/>
</svg>
